<svg width="380" height="468" viewBox="0 0 380 468" fill="none" xmlns="http://www.w3.org/2000/svg">
<path d="M122.615 378.28C118.509 378.28 115.362 379.533 113.175 382.04C110.989 384.547 109.895 388.093 109.895 392.68C109.895 397.32 111.095 400.893 113.495 403.4C115.949 405.907 119.229 407.16 123.335 407.16C125.522 407.16 127.362 406.867 128.855 406.28C130.402 405.693 131.869 405.027 133.255 404.28C134.162 405.027 134.855 405.933 135.335 407C135.869 408.013 136.135 409.213 136.135 410.6C136.135 412.787 134.909 414.653 132.455 416.2C130.055 417.693 126.375 418.44 121.415 418.44C117.842 418.44 114.482 417.933 111.335 416.92C108.189 415.907 105.442 414.36 103.095 412.28C100.749 410.147 98.882 407.48 97.4953 404.28C96.162 401.027 95.4953 397.16 95.4953 392.68C95.4953 388.52 96.1353 384.867 97.4153 381.72C98.7486 378.52 100.535 375.827 102.775 373.64C105.069 371.453 107.735 369.8 110.775 368.68C113.815 367.56 117.069 367 120.535 367C125.442 367 129.229 367.8 131.895 369.4C134.615 371 135.975 373.053 135.975 375.56C135.975 376.947 135.629 378.147 134.935 379.16C134.242 380.173 133.442 380.973 132.535 381.56C131.149 380.653 129.655 379.88 128.055 379.24C126.509 378.6 124.695 378.28 122.615 378.28ZM151.038 417.24C148.745 417.24 146.932 416.573 145.598 415.24C144.265 413.907 143.598 412.093 143.598 409.8V368.44C144.185 368.333 145.118 368.2 146.398 368.04C147.678 367.827 148.905 367.72 150.078 367.72C151.305 367.72 152.372 367.827 153.278 368.04C154.238 368.2 155.038 368.52 155.678 369C156.318 369.48 156.798 370.147 157.118 371C157.438 371.853 157.598 372.973 157.598 374.36V405.96H175.918C176.292 406.547 176.638 407.347 176.958 408.36C177.278 409.32 177.438 410.333 177.438 411.4C177.438 413.533 176.985 415.053 176.078 415.96C175.172 416.813 173.972 417.24 172.478 417.24H151.038ZM184.614 375.96C184.614 373.667 185.281 371.853 186.614 370.52C187.947 369.187 189.761 368.52 192.054 368.52H218.454C218.827 369.107 219.147 369.88 219.414 370.84C219.734 371.8 219.894 372.813 219.894 373.88C219.894 375.907 219.441 377.347 218.534 378.2C217.681 379.053 216.534 379.48 215.094 379.48H198.214V386.92H216.214C216.587 387.507 216.907 388.28 217.174 389.24C217.494 390.147 217.654 391.133 217.654 392.2C217.654 394.227 217.227 395.667 216.374 396.52C215.521 397.373 214.374 397.8 212.934 397.8H198.214V406.2H218.774C219.147 406.787 219.467 407.56 219.734 408.52C220.054 409.48 220.214 410.493 220.214 411.56C220.214 413.587 219.761 415.053 218.854 415.96C218.001 416.813 216.854 417.24 215.414 417.24H192.054C189.761 417.24 187.947 416.573 186.614 415.24C185.281 413.907 184.614 412.093 184.614 409.8V375.96ZM262.275 405.08C261.581 405.667 260.675 406.147 259.555 406.52C258.488 406.84 257.235 407 255.795 407C253.875 407 252.275 406.76 250.995 406.28C249.768 405.8 248.968 404.973 248.595 403.8C247.101 399.107 245.875 395.32 244.915 392.44C243.955 389.507 243.208 386.947 242.675 384.76H242.275C242.115 387.907 241.981 390.787 241.875 393.4C241.821 395.96 241.768 398.467 241.715 400.92C241.715 403.373 241.661 405.853 241.555 408.36C241.501 410.867 241.395 413.64 241.235 416.68C240.541 416.947 239.635 417.16 238.515 417.32C237.395 417.533 236.275 417.64 235.155 417.64C232.808 417.64 230.968 417.267 229.635 416.52C228.355 415.773 227.715 414.413 227.715 412.44L230.035 371.64C230.461 370.947 231.395 370.2 232.835 369.4C234.275 368.6 236.301 368.2 238.915 368.2C241.741 368.2 243.955 368.653 245.555 369.56C247.155 370.413 248.328 371.827 249.075 373.8C249.555 375.08 250.061 376.547 250.595 378.2C251.181 379.853 251.741 381.56 252.275 383.32C252.861 385.08 253.421 386.84 253.955 388.6C254.488 390.307 254.968 391.853 255.395 393.24H255.795C257.075 388.76 258.355 384.44 259.635 380.28C260.915 376.067 262.088 372.547 263.155 369.72C263.955 369.293 264.968 368.947 266.195 368.68C267.475 368.36 268.888 368.2 270.435 368.2C273.048 368.2 275.181 368.6 276.835 369.4C278.488 370.147 279.448 371.24 279.715 372.68C279.928 373.747 280.141 375.4 280.355 377.64C280.621 379.827 280.888 382.307 281.155 385.08C281.421 387.853 281.688 390.787 281.955 393.88C282.221 396.973 282.461 399.96 282.675 402.84C282.941 405.667 283.155 408.28 283.315 410.68C283.475 413.027 283.581 414.84 283.635 416.12C282.728 416.653 281.768 417.027 280.755 417.24C279.795 417.507 278.541 417.64 276.995 417.64C274.968 417.64 273.261 417.293 271.875 416.6C270.488 415.907 269.741 414.547 269.635 412.52C269.315 406.707 269.101 401.48 268.995 396.84C268.941 392.2 268.835 388.307 268.675 385.16H268.275C267.741 387.24 266.968 389.853 265.955 393C264.941 396.147 263.715 400.173 262.275 405.08Z" fill="#F47A20"/>
<path d="M150.5 168.5C154 165.5 156 163.5 161 160.5C161.5 159.5 125 78.5 125 78.5C116 57.5 60 104.5 79.0816 118.519C79.0816 118.519 148.5 168.5 150.5 168.5Z" fill="#F47A20"/>
<path d="M143.5 185C144.5 179.5 145 178 148 173C146.5 171.5 74.9994 128 74.9994 128C53.4997 115 36.9998 192 57.9999 192C57.9999 192 142.5 185.5 143.5 185Z" fill="#F47A20"/>
<path d="M149 206C146.5 203.5 145.5 201 143.861 197.047C129 197.047 57.7856 205.019 57.7856 205.019C38.9999 207 62 274 79.5002 260C79.5002 260 145 214.5 149 206Z" fill="#F47A20"/>
<path d="M163.5 216C159.5 214.5 157 213 153 210C145 216.5 88.0318 267.972 88.0318 267.972C72.4998 288.5 129.5 322 135.5 300C135.5 300 161 229 163.5 216Z" fill="#F47A20"/>
<path d="M181.601 216.553C177.412 217.394 174.497 217.442 169.516 217.01C166.161 226.756 145 303.5 145 303.5C135.5 333.5 221.5 327 212 302.5C212 302.5 186.35 228.91 181.601 216.553Z" fill="#F47A20"/>
<path d="M167.348 159.972C171.537 159.134 174.452 159.088 179.433 159.524C182.796 149.78 204.018 73.0532 204.018 73.0532C213.541 43.0608 127.536 49.493 137.017 74.0005C137.017 74.0005 162.608 147.611 167.348 159.972Z" fill="#F47A20"/>
<path d="M184.173 159.943C188.079 161.674 190.488 163.317 194.306 166.545C202.671 160.522 258 109 258 109C279.5 90.5 222 53 212.5 76C212.5 76 187.427 147.111 184.173 159.943Z" fill="#F47A20"/>
<path d="M197.5 170.5C199.82 174.087 200.073 175.208 201.5 180C211.798 179.542 291.5 171 291.5 171C307 169.494 289 102.5 268 116C268 116 213.704 154.506 197.5 170.5Z" fill="#F47A20"/>
<path d="M233.5 200C233.319 204.268 234.107 205.765 232.5 210.5C241.166 216.081 310.5 252 310.5 252C325.5 260 341.5 193 320.5 193C320.5 193 260.5 196.5 233.5 200Z" fill="#F47A20"/>
<path d="M217 231C214.5 234.5 214.5 235.5 210.062 238.982C213.057 248.845 243.5 324 243.5 324C250.5 342 303.5 298.5 287.5 286C287.5 286 285 280.5 217 231Z" fill="#F47A20"/>
</svg>
